Coordinates
version=1
nRows=10
nColumns=60
inDegrees=yes

Units are S.I. units (second, meters, Newtons, ...)
If the header above contains a line with 'inDegrees', this indicates whether rotational values are in degrees (yes) or radians (no).

endheader
time	pelvis_tilt	pelvis_list	pelvis_rotation	pelvis_tx	pelvis_ty	pelvis_tz	hip_flexion_r	hip_adduction_r	hip_rotation_r	knee_angle_r_beta	knee_angle_r	ankle_angle_r	subtalar_angle_r	mtp_angle_r	hip_flexion_l	hip_adduction_l	hip_rotation_l	knee_angle_l_beta	knee_angle_l	ankle_angle_l	subtalar_angle_l	mtp_angle_l	L5_S1_Flex_Ext	L5_S1_Lat_Bending	L5_S1_axial_rotation	L4_L5_Flex_Ext	L4_L5_Lat_Bending	L4_L5_axial_rotation	L3_L4_Flex_Ext	L3_L4_Lat_Bending	L3_L4_axial_rotation	L2_L3_Flex_Ext	L2_L3_Lat_Bending	L2_L3_axial_rotation	L1_L2_Flex_Ext	L1_L2_Lat_Bending	L1_L2_axial_rotation	L1_T12_Flex_Ext	L1_T12_Lat_Bending	L1_T12_axial_rotation	Abs_r3	Abs_r2	Abs_r1	Abs_t1	Abs_t2	arm_flex_r	arm_add_r	arm_rot_r	elbow_flex_r	pro_sup_r	wrist_flex_r	wrist_dev_r	arm_flex_l	arm_add_l	arm_rot_l	elbow_flex_l	pro_sup_l	wrist_flex_l	wrist_dev_l
     99.13000000	      0.17339951	     15.09904527	     91.79396726	      0.40974643	      0.94415279	      0.27253895	     -5.05046012	     -4.31882092	     -2.27495605	      0.32514290	    -18.62931605	     11.84134860	      0.00000000	      0.00000000	     -4.64178022	     -6.90343735	     -4.17571234	      0.30537726	    -17.49682829	     12.51721270	      0.00000000	      0.00000000	     -7.25309339	      0.01044194	     -0.20069485	    -13.46971974	      0.01388778	     -0.21323828	    -11.91610714	      0.02538852	     -0.21323828	     -8.28956044	      0.02538852	     -0.17560799	     -6.73522253	      0.02129320	     -0.16306457	     -4.14441756	      0.01617456	     -0.15052114	    -51.80812080	      0.11812127	     -1.11620455	      0.00000000	      0.00000000	     17.03830546	    -29.98841553	      8.90692879	     91.94408236	     63.37941242	      1.63176779	     33.61555510	     20.48066318	    -29.17663106	     10.05635586	     87.93818561	     62.83084848	     12.24823719	     28.28747320
     99.14000000	      0.16261345	     15.18217521	     91.76500395	      0.40970642	      0.94433926	      0.27025464	     -5.41274011	     -4.32694355	     -2.31241739	      0.32116780	    -18.40155947	     11.95898319	      0.00000000	      0.00000000	     -4.97172049	     -6.88981799	     -4.27999978	      0.30309208	    -17.36589690	     12.68316721	      0.00000000	      0.00000000	     -7.14161427	      0.00959210	     -0.19393385	    -13.26269186	      0.01275750	     -0.20605472	    -11.73295809	      0.02332224	     -0.20605472	     -8.16215095	      0.02332224	     -0.16969212	     -6.63170301	      0.01956022	     -0.15757126	     -4.08071839	      0.01485817	     -0.14545039	    -51.01183658	      0.10850779	     -1.07860191	      0.00000000	      0.00000000	     17.35356036	    -30.36095070	      9.17689445	     92.01029672	     63.22673973	      1.64099129	     33.76199551	     20.73037859	    -29.30326464	     10.31495691	     88.13310731	     62.66690783	     12.06649740	     28.41890063
     99.15000000	      0.16299361	     15.42868051	     91.74831038	      0.40963061	      0.94476173	      0.26819743	     -5.95665836	     -4.31894726	     -2.30585616	      0.31684079	    -18.15364028	     11.95737831	      0.00000000	      0.00000000	     -5.46718713	     -6.88736518	     -4.36819743	      0.30060378	    -17.22332812	     12.73122148	      0.00000000	      0.00000000	     -7.06411590	      0.00782779	     -0.21188481	    -13.11876963	      0.01041096	     -0.22512761	    -11.60563600	      0.01903250	     -0.22512761	     -8.07357806	      0.01903250	     -0.18539921	     -6.55973802	      0.01596244	     -0.17215641	     -4.03643582	      0.01212525	     -0.15891361	    -50.45827343	      0.08854956	     -1.17843976	      0.00000000	      0.00000000	     18.11251551	    -30.67503138	      9.70709252	     91.93187651	     60.99714488	      1.52330494	     35.34232919	     21.10915017	    -29.51354886	     10.64896854	     88.45626906	     60.52401952	      9.24210466	     29.95376021
     99.16000000	      0.14917547	     15.44646357	     91.72450855	      0.40959406	      0.94480891	      0.26622027	     -6.19280342	     -4.33525192	     -2.35965505	      0.31414919	    -17.99942291	     12.08850265	      0.00000000	      0.00000000	     -5.67108237	     -6.86990605	     -4.47114971	      0.29919764	    -17.14276201	     12.84210975	      0.00000000	      0.00000000	     -6.95872621	      0.00645863	     -0.19935916	    -12.92305044	      0.00858998	     -0.21181911	    -11.43249128	      0.01570351	     -0.21181911	     -7.95312818	      0.01570351	     -0.17443927	     -6.46187315	      0.01317044	     -0.16197932	     -3.97621615	      0.01000442	     -0.14951937	    -49.70548541	      0.07306130	     -1.10877586	      0.00000000	      0.00000000	     18.53989161	    -30.96804833	      9.87660836	     91.87694679	     61.00357948	      1.54170948	     35.35968097	     21.52554880	    -29.54406844	     10.84449748	     88.51745971	     60.54555121	      9.15050761	     29.97642877
     99.17000000	      0.13177770	     15.50708784	     91.71081114	      0.40949334	      0.94493101	      0.26446248	     -6.46002480	     -4.35338457	     -2.34518878	      0.31154899	    -17.85044238	     12.18230035	      0.00000000	      0.00000000	     -5.91116637	     -6.84254069	     -4.53442957	      0.29770736	    -17.05737553	     12.91129246	      0.00000000	      0.00000000	     -6.86513542	      0.00671338	     -0.19503248	    -12.74924299	      0.00892880	     -0.20722201	    -11.27873099	      0.01632292	     -0.20722201	     -7.84616327	      0.01632292	     -0.17065342	     -6.37496475	      0.01368993	     -0.15846389	     -3.92273838	      0.01039903	     -0.14627436	    -49.03697581	      0.07594314	     -1.08471213	      0.00000000	      0.00000000	     19.17189493	    -31.23659855	     10.17905396	     91.68338994	     60.93935741	      1.57751472	     35.39216184	     22.12427293	    -29.58751165	     11.14038633	     88.36078381	     60.54006760	      9.04631262	     30.03242290
     99.18000000	      0.10089357	     15.56344255	     91.70601707	      0.40936950	      0.94500376	      0.26285752	     -6.68877429	     -4.39142520	     -2.36014004	      0.30979171	    -17.74975727	     12.25517435	      0.00000000	      0.00000000	     -6.12827018	     -6.80125072	     -4.58000168	      0.29625114	    -16.97393978	     12.94891081	      0.00000000	      0.00000000	     -6.77932925	      0.00590262	     -0.19167524	    -12.58989235	      0.00785049	     -0.20365494	    -11.13776003	      0.01435163	     -0.20365494	     -7.74809540	      0.01435163	     -0.16771583	     -6.29528514	      0.01203663	     -0.15573613	     -3.87370873	      0.00914316	     -0.14375643	    -48.42407091	      0.06677164	     -1.06604016	      0.00000000	      0.00000000	     19.87760974	    -31.46866762	     10.43915913	     91.45904124	     60.81699779	      1.62389910	     35.42552108	     22.78657424	    -29.60530407	     11.41118378	     88.17581024	     60.51140543	      8.96485571	     30.11027634
     99.19000000	      0.08007438	     15.57147728	     91.71348743	      0.40922285	      0.94497660	      0.26145440	     -6.80194379	     -4.42250219	     -2.38635886	      0.30962913	    -17.74044222	     12.27128964	      0.00000000	      0.00000000	     -6.23985230	     -6.77810974	     -4.61708211	      0.29597210	    -16.95795191	     12.95819285	      0.00000000	      0.00000000	     -6.71244798	      0.00698307	     -0.19277926	    -12.46568715	      0.00928749	     -0.20482796	    -11.02788079	      0.01697864	     -0.20482796	     -7.67165680	      0.01697864	     -0.16868185	     -6.23317920	      0.01423988	     -0.15663315	     -3.83549278	      0.01081678	     -0.14458445	    -47.94634471	      0.07899392	     -1.07218041	      0.00000000	      0.00000000	     20.46657247	    -31.56334790	     10.30159086	     91.56755135	     60.80054098	      1.63343027	     35.40862546	     23.30345075	    -29.58312610	     11.34823767	     88.31702360	     60.50944738	      8.96300109	     30.10456354
     99.20000000	      0.03836817	     15.59806125	     91.70979273	      0.40907350	      0.94502751	      0.26014467	     -6.93974561	     -4.47105868	     -2.37701696	      0.30940998	    -17.72788604	     12.40702212	      0.00000000	      0.00000000	     -6.42583514	     -6.71335339	     -4.60570496	      0.29385373	    -16.83657826	     13.01533584	      0.00000000	      0.00000000	     -6.62336958	      0.00342755	     -0.18658713	    -12.30025965	      0.00455864	     -0.19824882	    -10.88153388	      0.00833374	     -0.19824882	     -7.56984909	      0.00833374	     -0.16326374	     -6.15046099	      0.00698946	     -0.15160204	     -3.78459338	      0.00530927	     -0.13994035	    -47.31006658	      0.03877312	     -1.03774163	      0.00000000	      0.00000000	     21.46586568	    -31.80096674	     10.85181556	     90.96940854	     60.60258061	      1.72816225	     35.47158989	     24.33078242	    -29.56739091	     11.99003003	     87.62967034	     60.42678098	      8.91926765	     30.29024593
     99.21000000	      0.01928911	     15.56004759	     91.70685433	      0.40886339	      0.94495804	      0.25902206	     -6.97060007	     -4.51209890	     -2.40688656	      0.30926281	    -17.71945357	     12.41981115	      0.00000000	      0.00000000	     -6.47339042	     -6.67444310	     -4.64198197	      0.29337960	    -16.80941278	     13.02356853	      0.00000000	      0.00000000	     -6.57015202	      0.00636832	     -0.18454422	    -12.20142931	      0.00846987	     -0.19607824	    -10.79410275	      0.01548394	     -0.19607824	     -7.50902674	      0.01548394	     -0.16147620	     -6.10104316	      0.01298628	     -0.14994218	     -3.75418486	      0.00986453	     -0.13840817	    -46.92993885	      0.07203974	     -1.02637961	      0.00000000	      0.00000000	     22.14375304	    -31.86054714	     10.68732839	     91.06611602	     60.58443816	      1.74079360	     35.45066851	     24.91556631	    -29.51882652	     11.93997690	     87.75629054	     60.41722569	      8.92068133	     30.28994618
     99.22000000	     -0.00933008	     15.50782146	     91.68102806	      0.40871493	      0.94491214	      0.25803333	     -6.90917448	     -4.56229936	     -2.39340501	      0.31160644	    -17.85373368	     12.50999254	      0.00000000	      0.00000000	     -6.54299933	     -6.61780146	     -4.61908472	      0.29173116	    -16.71496433	     13.04648171	      0.00000000	      0.00000000	     -6.47981439	      0.00476211	     -0.16322777	    -12.03366330	      0.00633360	     -0.17342951	    -10.64568706	      0.01157859	     -0.17342951	     -7.40577987	      0.01157859	     -0.14282430	     -6.01715564	      0.00971089	     -0.13262257	     -3.70256594	      0.00737650	     -0.12242083	    -46.28466620	      0.05386991	     -0.90782391	      0.00000000	      0.00000000	     23.22755882	    -32.02266776	     11.19752424	     90.25469427	     60.33868047	      1.89266658	     35.52380017	     26.18493683	    -29.49368716	     12.90749310	     86.79362853	     60.18205427	      8.85176878	     30.60783963
